<svg width="188" height="188" version="1.1" xmlns="http://www.w3.org/2000/svg" xmlns:xlink="http://www.w3.org/1999/xlink"><path d="M115.43 24.43L115.43 24.43Q115.43 25.93 113.55 29.50L113.55 29.50L112.99 31.01Q112.42 32.89 109.98 46.80L109.98 46.80Q107.72 60.33 100.02 66.54L100.02 66.54L96.82 66.35Q95.32 63.91 87.98 55.63L87.98 55.63Q87.23 54.69 86.48 53.94L86.48 53.94L86.48 53.19L95.13 55.45Q96.82 55.63 97.95 55.07L97.95 55.07Q102.84 52.81 103.96 38.15L103.96 38.15Q104.53 31.38 103.59 28.19L103.59 28.19L102.27 27.62Q95.13 29.13 87.80 31.57L87.80 31.57Q91.37 34.77 91.93 36.65L91.93 36.65Q83.66 51.50 78.96 56.39L78.96 56.39Q74.45 61.09 69.37 63.34L69.37 63.34L69.00 61.84Q79.15 49.43 81.78 43.04L81.78 43.04Q83.85 37.96 84.04 32.89L84.04 32.89L78.02 34.20Q77.27 34.20 76.33 33.83L76.33 33.83Q72.19 32.32 72.00 30.63L72.00 30.63Q73.70 29.69 82.16 28.56L82.16 28.56Q83.66 28.37 84.79 28.00L84.79 28.00Q98.51 24.61 103.96 20.67L103.96 20.67Q107.35 20.67 115.43 24.43ZM150.59 166.93L150.59 166.93Q147.58 166.74 144.01 161.48L144.01 161.48Q142.50 159.41 141.75 158.66L141.75 158.66Q138.74 155.27 128.22 148.13L128.22 148.13Q125.96 146.44 124.27 145.12L124.27 145.12L124.08 144.18Q125.21 143.62 134.42 145.12L134.42 145.12Q144.57 146.63 145.70 142.49L145.70 142.49L146.26 139.11L145.70 58.08Q145.70 42.10 145.70 41.16L145.70 41.16Q144.76 30.63 139.12 24.80L139.12 24.80Q139.12 20.48 146.83 22.55L146.83 22.55Q154.54 24.80 157.36 28.94L157.36 28.94Q158.11 30.07 158.11 31.19L158.11 31.19Q158.11 31.95 156.60 37.59L156.60 37.59L156.23 39.28Q155.10 49.24 154.72 57.51L154.72 57.51L154.72 99.81L157.17 136.66Q157.73 162.04 150.59 166.93ZM126.90 61.84L126.90 61.84L125.77 97.75Q125.02 110.91 122.39 113.73L122.39 113.73Q120.13 113.73 117.88 109.78L117.88 109.78Q117.50 109.21 117.31 109.03L117.31 109.03Q116.37 103.57 117.88 87.41L117.88 87.41Q119.38 69.92 115.06 59.96L115.06 59.96Q115.06 57.89 116.18 56.95L116.18 56.95Q123.33 57.70 126.90 61.84ZM62.42 51.69L62.42 51.69Q45.12 70.49 38.92 78.38L38.92 78.38Q35.72 77.82 33.46 73.49L33.46 73.49Q32.90 72.18 32.90 71.05L32.90 71.05Q32.71 69.92 34.59 65.97L34.59 65.97L34.97 64.85Q37.22 56.95 34.59 45.67L34.59 45.67Q32.90 38.90 29.89 35.33L29.89 35.33Q29.70 30.63 38.73 36.46L38.73 36.46Q39.29 36.83 39.48 37.02L39.48 37.02L49.82 24.43Q52.64 20.48 53.39 18.03L53.39 18.03L53.96 14.46Q54.14 14.09 54.71 13.90L54.71 13.90Q58.09 12.77 64.67 18.97L64.67 18.97Q65.80 19.91 66.55 20.85L66.55 20.85Q66.36 23.11 62.04 24.99L62.04 24.99Q60.54 25.74 59.78 26.12L59.78 26.12L40.61 39.84Q40.04 46.80 40.80 55.63L40.80 55.63L41.55 61.27L42.49 62.21Q46.62 60.15 57.53 52.06L57.53 52.06Q59.41 50.56 60.72 49.62L60.72 49.62Q60.72 48.68 58.47 44.35L58.47 44.35Q56.78 40.97 58.47 39.28L58.47 39.28L65.99 44.35Q68.43 46.42 69.00 48.49L69.00 48.49Q69.37 49.43 69.37 50.56L69.37 50.56Q69.37 56.76 64.48 53.38L64.48 53.38Q63.54 52.81 62.42 51.69ZM101.71 90.04L101.52 90.04Q86.48 81.20 72.76 74.81L72.76 74.81L50.57 97.75Q30.64 117.11 14.85 117.11L14.85 117.11Q36.85 100.57 40.61 97.37L40.61 97.37Q58.66 82.14 63.92 69.73L63.92 69.73L65.61 65.22L65.80 65.03Q72.57 65.41 76.33 68.98L76.33 68.98L75.39 71.80Q97.57 76.69 101.52 80.45L101.52 80.45Q104.15 83.08 104.90 87.22L104.90 87.22L104.72 89.47Q104.34 90.23 103.40 90.41L103.40 90.41L101.71 90.04ZM99.45 120.68L99.45 120.68Q93.62 123.88 82.34 132.71L82.34 132.71L80.84 132.71L80.84 131.21Q86.67 122.56 87.61 120.12L87.61 120.12Q88.74 116.92 88.74 113.73L88.74 113.73Q92.12 112.79 96.44 115.79L96.44 115.79Q99.83 118.05 99.45 120.68ZM101.14 132.15L102.84 132.34Q102.84 135.35 97.38 137.60L97.38 137.60Q90.99 140.61 81.78 143.81L81.78 143.81Q56.40 153.21 43.80 160.35L43.80 160.35Q39.86 159.79 33.65 154.90L33.65 154.90Q32.71 154.33 32.34 153.77L32.34 153.77Q31.21 152.64 31.40 150.95L31.40 150.95Q31.40 150.57 31.40 150.01L31.40 150.01Q32.71 148.13 37.22 148.69L37.22 148.69Q37.98 148.88 38.54 148.88L38.54 148.88Q42.49 148.88 61.85 143.43L61.85 143.43Q64.67 142.68 66.55 142.11L66.55 142.11L66.74 117.11L53.20 119.93Q47.56 120.49 43.80 118.24L43.80 118.24L43.24 116.92L65.42 111.47L66.18 111.09Q66.93 107.90 65.24 101.51L65.24 101.51Q65.05 100.94 65.05 100.38L65.05 100.38Q56.78 99.63 55.65 99.25L55.65 99.25Q53.96 98.69 52.64 97.56L52.64 97.56Q52.83 96.43 55.27 95.49L55.27 95.49Q57.90 95.49 71.06 91.35L71.06 91.35Q85.16 86.84 89.68 91.17L89.68 91.17Q89.68 93.05 87.80 93.80L87.80 93.80L71.63 98.50Q74.64 100.38 75.76 106.96L75.76 106.96L85.92 103.95Q90.80 103.20 94 106.39L94 106.39Q94 109.40 80.65 112.97L80.65 112.97Q76.33 114.10 75.20 114.67L75.20 114.67L73.70 139.67Q80.09 138.54 100.02 132.34L100.02 132.34Q100.58 132.34 101.14 132.15L101.14 132.15ZM57.15 133.09L57.15 133.09L57.34 138.54L56.59 140.23L55.84 140.61Q51.89 139.86 46.81 133.84L46.81 133.84Q43.43 129.89 41.55 128.58L41.55 128.58L41.74 125.38Q52.64 128.20 56.02 131.77L56.02 131.77Q56.59 132.34 57.15 133.09Z" stroke="#000" fill="black" /></svg>