<?xml version="1.0" encoding="UTF-8" standalone="no"?>
        <svg 
    viewBox="3.4423828125 -86.865234375 296.4111328125 57.12890625"
    width="292.96875"
    height="143.994140625"
   xmlns="http://www.w3.org/2000/svg"
   xmlns:svg="http://www.w3.org/2000/svg">
   <path d="M15.75-30.18L17.29-30.91Q25.71-28.71 30.10-25.56Q34.50-22.41 35.78-19.01Q37.06-15.60 36.00-12.74Q34.94-9.89 32.34-8.28Q29.74-6.67 26.40-7.03Q23.07-7.40 19.92-10.47L19.92-10.47Q20.29-15.67 18.97-20.98Q17.65-26.29 15.75-30.18L15.75-30.18ZM120.92-10.03L120.92-125.98L145.97-123.63Q145.75-121.95 144.47-120.89Q143.19-119.82 140.41-119.38L140.41-119.38L140.41-8.72Q140.41-1.98 138.79 2.78Q137.18 7.54 132.02 10.33Q126.86 13.11 116.09 14.14L116.09 14.14Q115.80 9.23 115.06 5.79Q114.33 2.34 112.50 0L112.50 0Q110.67-2.27 107.96-3.85Q105.25-5.42 99.61-6.45L99.61-6.45L99.61-8.42Q99.61-8.42 101.92-8.28Q104.22-8.13 107.48-7.95Q110.74-7.76 113.71-7.62Q116.67-7.47 117.92-7.47L117.92-7.47Q120.92-7.47 120.92-10.03L120.92-10.03ZM34.79-129.13L34.79-129.13L46.51-118.36L72.73-118.36L80.71-125.98L94.92-114.48L94.92-116.09L118.21-113.96Q117.99-112.57 116.97-111.55Q115.94-110.52 113.23-110.08L113.23-110.08L113.23-27.76Q113.23-27.03 110.96-25.82Q108.69-24.61 105.29-23.62Q101.88-22.63 98.36-22.63L98.36-22.63L94.92-22.63L94.92-114.18Q93.46-112.43 89.72-111.77L89.72-111.77Q88.92-95.65 87.34-87.74Q85.77-79.83 81.59-76.68L81.59-76.68Q79.10-74.85 75.95-74.16Q72.80-73.46 69.29-73.32L69.29-73.32Q69.29-75.81 68.88-78.11Q68.48-80.42 67.53-81.88L67.53-81.88Q65.33-85.25 60.13-86.87L60.13-86.87L60.13-88.77Q62.40-88.55 64.97-88.44Q67.53-88.33 68.99-88.33L68.99-88.33Q70.24-88.33 70.83-89.28L70.83-89.28Q72.07-90.82 72.88-96.64Q73.68-102.47 74.12-114.18L74.12-114.18L68.55-114.18Q67.75-104.15 63.98-95.21Q60.21-86.28 49.95-80.13L49.95-80.13L64.67-77.27Q64.23-75.81 62.55-74.93Q60.86-74.05 57.28-73.97L57.28-73.97Q69.51-72.95 76.61-70.13Q83.72-67.31 86.68-63.61Q89.65-59.91 89.54-56.32Q89.43-52.73 87.12-50.17Q84.81-47.61 81.30-47.02Q77.78-46.44 74.12-48.93L74.12-48.93L73.97-49.22Q73.32-47.53 70.53-47.53L70.53-47.53L56.69-47.53L56.69-37.06L63.87-37.06L71.85-46.95Q71.85-46.95 74.38-45.04Q76.90-43.14 80.38-40.43Q83.86-37.72 86.72-35.23L86.72-35.23Q86.06-32.89 82.62-32.89L82.62-32.89L56.69-32.89L56.69-7.62L58.96-7.76Q60.64-12.89 62.18-19.52Q63.72-26.15 64.67-31.35L64.67-31.35L85.47-24.17Q84.96-22.92 83.57-22.16Q82.18-21.39 79.83-21.61L79.83-21.61Q76.54-18.68 71.92-15.01Q67.31-11.35 62.55-8.13L62.55-8.13L91.63-10.18L91.77-8.13Q79.76-4.25 61.93 0.55Q44.09 5.35 18.31 11.43L18.31 11.43Q16.70 14.14 13.77 14.87L13.77 14.87L6.30-4.98Q11.50-5.05 19.78-5.46Q28.05-5.86 38.38-6.45L38.38-6.45L38.38-32.89L9.30-32.89L8.13-37.06L38.38-37.06L38.38-47.53L26.07-47.53L25.49-49.51Q20.58-46.66 15.31-44.31Q10.03-41.97 4.61-40.06L4.61-40.06L3.74-41.24Q10.99-46.80 17.47-54.09Q23.95-61.38 29.00-68.88Q34.06-76.39 36.91-82.62L36.91-82.62L47.97-80.57L47.09-81.45Q48.19-83.28 49.04-85.07Q49.88-86.87 50.54-88.77L50.54-88.77Q48.63-86.13 44.97-85.51Q41.31-84.89 37.50-88.04L37.50-88.04L37.21-91.63Q33.84-87.96 28.97-82.91Q24.10-77.86 17.58-71.70L17.58-71.70Q16.85-68.48 14.43-67.53L14.43-67.53L3.44-84.16L10.33-86.13L10.33-123.12L26.51-118.80Q29.15-121.73 31.35-124.55Q33.54-127.37 34.79-129.13ZM73.17-51.12L73.17-51.12Q70.97-56.10 66.58-62.00Q62.18-67.90 56.25-72.73L56.25-72.73Q51.20-67.46 44.35-62.04Q37.50-56.62 29.37-51.78L29.37-51.78L52.66-51.78L60.28-61.38Q60.28-61.38 62.40-59.77Q64.53-58.15 67.53-55.81Q70.53-53.47 73.17-51.12ZM30.62-107.67L32.08-108.47Q42.77-106.42 47.24-102.36Q51.71-98.29 52.08-94.34L52.08-94.34Q53.03-99.10 53.32-104.04Q53.61-108.98 53.69-114.18L53.69-114.18L50.10-114.18Q48.71-112.94 45.63-114.18L45.63-114.18Q42.70-113.23 37.61-112.32Q32.52-111.40 27.03-110.67L27.03-110.67L27.03-91.48L36.47-94.78Q35.52-98.36 33.95-101.81Q32.37-105.25 30.62-107.67L30.62-107.67ZM156.15 9.74L154.98 5.57L266.09 5.57L276.42-8.13Q276.42-8.13 278.36-6.63Q280.30-5.13 283.26-2.75Q286.23-0.37 289.45 2.31Q292.68 4.98 295.39 7.32L295.39 7.32Q294.73 9.74 290.99 9.74L290.99 9.74L156.15 9.74ZM183.62-64.01L182.37-68.26L243.02-68.26L252.03-79.17Q252.03-79.17 254.81-77.12Q257.59-75.07 261.47-72.11Q265.36-69.14 268.51-66.43L268.51-66.43Q267.85-64.01 264.33-64.01L264.33-64.01L183.62-64.01ZM185.82 1.32L185.82-51.64L185.82-59.99L207.93-51.64L241.19-51.64L250.49-61.52L269.38-47.39Q268.73-46.58 267.44-45.70Q266.16-44.82 263.96-44.38L263.96-44.38L263.96-7.32Q263.89-6.67 261.04-5.31Q258.18-3.96 254.11-2.82Q250.05-1.68 246.46-1.68L246.46-1.68L242.72-1.68L242.72-8.72L206.84-8.72L206.84-5.13Q206.84-4.17 204.16-2.64Q201.49-1.10 197.35 0.11Q193.21 1.32 188.82 1.32L188.82 1.32L185.82 1.32ZM206.84-28.34L206.84-12.89L242.72-12.89L242.72-28.34L206.84-28.34ZM206.84-47.39L206.84-32.52L242.72-32.52L242.72-47.39L206.84-47.39ZM174.02-92.72L174.02-92.72L175.93-92.72Q177.10-90.31 177.83-88.07Q178.56-85.84 179.08-83.72L179.08-83.72L213.57-83.72L213.57-100.63L237.74-98.73L237.74-106.20L210.57-106.20L210.57-96.02Q210.57-94.78 205.41-93.20Q200.24-91.63 192.92-91.63L192.92-91.63L189.48-91.63L189.48-106.20L155.13-106.20L154.03-110.38L189.48-110.38L189.48-128.39L215.84-126.12Q215.77-124.66 214.64-123.67Q213.50-122.68 210.57-122.24L210.57-122.24L210.57-110.38L237.74-110.38L237.74-128.39L264.62-126.27Q264.48-124.73 263.38-123.71Q262.28-122.68 259.35-122.24L259.35-122.24L259.35-110.38L268.36-110.38L278.25-123.63Q278.25-123.63 280.04-122.17Q281.84-120.70 284.62-118.40Q287.40-116.09 290.41-113.49Q293.41-110.89 295.83-108.62L295.83-108.62Q295.17-106.20 291.58-106.20L291.58-106.20L259.35-106.20L259.35-96.75Q259.35-95.51 254.04-94.04Q248.73-92.58 241.19-92.58L241.19-92.58L237.74-92.58L237.74-96.31Q236.94-95.51 234.89-95.21L234.89-95.21L234.89-83.72L268.80-83.72L278.83-93.90L296.41-77.42Q294.87-75.66 290.55-75.44L290.55-75.44Q286.82-72.44 281.18-68.92Q275.54-65.41 270.63-63.13L270.63-63.13L269.38-64.01Q269.75-67.31 270.04-71.56Q270.34-75.81 270.48-79.47L270.48-79.47L179.88-79.47Q180.83-71.48 178.38-66.03Q175.93-60.57 171.90-58.37L171.90-58.37Q167.87-56.18 163.26-57.60Q158.64-59.03 157.18-63.72L157.18-63.72Q156.08-68.12 158.31-71.37Q160.55-74.63 164.43-76.32L164.43-76.32Q168.09-78.30 171.28-82.80Q174.46-87.30 174.02-92.72Z"/>
    </svg>
        