<svg width="188" height="188" version="1.1" xmlns="http://www.w3.org/2000/svg" xmlns:xlink="http://www.w3.org/1999/xlink"><path d="M143.82 37.41L143.82 37.41L143.44 39.48L121.64 39.29Q112.42 39.86 106.03 42.30L106.03 42.30L100.20 53.02Q98.14 55.84 95.50 57.53L95.50 57.53Q92.31 56.59 97.57 42.30L97.57 42.30Q97.01 41.55 94 40.04L94 40.04Q92.31 39.10 91.93 37.60L91.93 37.60Q93.06 36.47 96.44 36.66L96.44 36.66Q99.45 36.85 99.83 33.46L99.83 33.46Q100.96 27.26 100.96 23.50L100.96 23.50L99.83 16.92Q99.83 15.04 101.14 14.48L101.14 14.48L105.84 14.48Q112.99 18.24 115.62 22.18L115.62 22.18L109.60 34.22L109.42 34.59L129.16 31.77Q139.12 31.21 143.82 37.41ZM90.80 61.66L90.80 61.66L91.74 67.87L91.37 69.56Q90.62 70.31 89.49 70.31L89.49 70.31L86.29 69.56L86.10 69.56Q85.35 68.81 77.83 62.23L77.83 62.23Q75.76 60.35 74.45 59.03L74.45 59.03Q74.45 56.02 75.58 55.84L75.58 55.84L85.16 57.72Q88.92 58.84 90.80 61.66ZM83.85 38.16L83.85 38.16L82.72 40.04L67.68 44.37Q67.68 53.96 67.30 55.65L67.30 55.65L66.36 58.09Q63.17 58.09 60.35 48.32L60.35 48.32Q59.97 46.81 59.60 46.25L59.60 46.25L38.35 51.14Q31.21 49.82 27.07 44.56L27.07 44.56Q27.07 42.86 27.64 42.30L27.64 42.30Q35.16 42.86 54.14 40.23L54.14 40.23Q56.40 39.86 58.28 39.67L58.28 39.67Q57.15 33.46 51.14 25.94L51.14 25.94Q51.14 19.93 64.11 25.38L64.11 25.38Q65.61 26.13 66.18 26.32L66.18 26.32Q67.12 28.01 67.30 35.34L67.30 35.34Q67.49 37.22 67.68 38.54L67.68 38.54L81.78 36.47Q83.66 37.60 83.85 38.16ZM154.54 80.65L154.54 80.65Q153.60 82.91 146.45 84.41L146.45 84.41L144.38 84.79Q143.26 85.16 127.46 92.87L127.46 92.87L126.71 93.25Q125.40 92.68 125.21 90.99L125.21 90.99L131.79 77.08Q130.47 72.94 119.76 73.70L119.76 73.70Q118.63 73.88 118.25 73.88L118.25 73.88Q94.75 75.39 65.80 80.84L65.80 80.84L46.62 85.35Q45.68 85.54 44.74 85.54L44.74 85.54Q42.49 85.92 39.10 85.16L39.10 85.16Q37.79 84.79 36.47 84.22L36.47 84.22Q34.97 86.86 31.40 97.38L31.40 97.38Q28.76 105.28 24.82 109.04L24.82 109.04Q21.24 108.85 19.55 103.59L19.55 103.59Q18.61 100.96 18.42 100.20L18.42 100.20Q18.42 94.94 24.06 87.98L24.06 87.98Q28.39 82.91 28.58 80.09L28.58 80.09L28.95 74.26Q29.33 73.32 29.70 72.57L29.70 72.57Q32.90 72.57 35.91 77.64L35.91 77.64Q36.47 78.58 36.66 78.96L36.66 78.96Q38.35 78.77 74.26 73.70L74.26 73.70Q76.89 73.32 79.15 73.13L79.15 73.13L127.84 66.93L132.54 66.18Q139.68 66.18 148.71 75.01L148.71 75.01Q153.78 79.90 154.54 80.65ZM106.03 90.05L106.03 90.05Q106.03 92.12 103.78 92.68L103.78 92.68Q98.32 95.13 74.07 98.51L74.07 98.51Q71.06 98.89 69.75 99.08L69.75 99.08Q65.05 99.45 61.10 98.32L61.10 98.32L57.53 96.63Q56.21 95.50 55.27 94.19L55.27 94.19L56.40 93.25Q70.50 93.06 82.53 89.68L82.53 89.68L93.06 86.48Q93.62 86.29 94 86.29L94 86.29Q97.95 85.92 101.52 87.04L101.52 87.04Q104.53 88.17 106.03 90.05ZM122.20 110.17L123.52 111.67Q123.52 113.36 120.13 117.12L120.13 117.12Q119.00 118.25 118.63 119.00Q118.25 119.76 113.74 134.04L113.74 134.04Q109.04 149.08 104.90 149.08L104.90 149.08Q102.46 147.96 98.89 143.26L98.89 143.26Q87.23 143.63 63.36 147.20L63.36 147.20Q63.36 150.40 62.23 151.53L62.23 151.53Q57.15 149.27 54.90 139.87L54.90 139.87Q53.58 134.98 53.39 134.23L53.39 134.23Q49.63 121.07 44.74 112.05L44.74 112.05Q44.56 109.42 49.07 109.79L49.07 109.79L55.46 111.30L106.78 102.27Q113.18 101.14 122.20 110.17L122.20 110.17ZM107.54 112.80L107.54 112.80Q106.03 109.23 99.45 109.42L99.45 109.42L98.32 109.42Q80.46 110.92 58.28 116.94L58.28 116.94L60.16 127.46L80.28 121.82Q85.73 120.70 90.05 120.70L90.05 120.70Q94.94 120.70 98.14 123.14L98.14 123.14L99.26 124.46L99.26 125.02Q99.26 126.52 97.95 126.90L97.95 126.90L61.10 131.60L63.54 142.69L87.61 138.18Q97.95 136.86 100.39 138.37L100.39 138.37Q105.47 129.16 107.54 112.80ZM148.14 165.82L148.14 165.82L146.08 166.76Q119.94 161.49 75.39 166.19L75.39 166.19Q83.10 165.25 52.83 168.64L52.83 168.64L36.66 172.21Q35.16 172.40 34.03 172.40L34.03 172.40Q29.52 172.40 25.76 169.58L25.76 169.58Q22.00 166.57 22.00 163.94L22.00 163.94L23.31 162.81Q40.98 162.81 85.73 158.48L85.73 158.48Q90.99 157.92 95.13 157.54L95.13 157.54L117.69 155.85L127.84 153.97Q132.73 153.41 141.38 157.17L141.38 157.17Q150.96 161.49 148.14 165.82Z" stroke="#000" fill="black" /></svg>